<svg preserveAspectRatio="none" width="100%" height="100%" overflow="visible" style="display: block;" viewBox="0 0 24 24" fill="none" xmlns="http://www.w3.org/2000/svg">
<g id="AI icon">
<path id="Shape" d="M14.3485 11.8155C12.6394 11.4757 10.7755 11.0886 9.59374 9.90687C8.412 8.72513 8.02616 6.86 7.68506 5.15211C7.64515 4.95011 7.35606 4.95011 7.31615 5.15211C6.97626 6.86121 6.58921 8.72513 5.40747 9.90687C4.22573 11.0886 2.3606 11.4745 0.651497 11.8155C0.449501 11.8555 0.449501 12.1445 0.651497 12.1845C2.3606 12.5243 4.22573 12.9114 5.40747 14.0931C6.58921 15.2749 6.97505 17.14 7.31615 18.8479C7.35606 19.0499 7.64515 19.0499 7.68506 18.8479C8.02495 17.1388 8.412 15.2749 9.59374 14.0931C10.7755 12.9114 12.6394 12.5256 14.3485 12.1857C14.5505 12.1458 14.5505 11.8567 14.3485 11.8168V11.8155Z" fill="var(--fill-0, #F0D0F5)"/>
<path id="Shape_2" d="M18.8485 11.8155C17.1394 11.4757 15.2755 11.0886 14.0937 9.90687C12.912 8.72513 12.5262 6.86 12.1851 5.15211C12.1451 4.95011 11.8561 4.95011 11.8161 5.15211C11.4763 6.86121 11.0892 8.72513 9.90747 9.90687C8.72573 11.0886 6.8606 11.4745 5.1515 11.8155C4.9495 11.8555 4.9495 12.1445 5.1515 12.1845C6.8606 12.5243 8.72573 12.9114 9.90747 14.0931C11.0892 15.2749 11.4751 17.14 11.8161 18.8479C11.8561 19.0499 12.1451 19.0499 12.1851 18.8479C12.5249 17.1388 12.912 15.2749 14.0937 14.0931C15.2755 12.9114 17.1394 12.5256 18.8485 12.1857C19.0505 12.1458 19.0505 11.8567 18.8485 11.8168V11.8155Z" fill="var(--fill-0, #EAB8F2)"/>
<path id="Shape_3" d="M23.3485 11.8155C21.6394 11.4757 19.7755 11.0886 18.5937 9.90687C17.412 8.72513 17.0262 6.86 16.6851 5.15211C16.6451 4.95011 16.3561 4.95011 16.3161 5.15211C15.9763 6.86121 15.5892 8.72513 14.4075 9.90687C13.2257 11.0886 11.3606 11.4745 9.6515 11.8155C9.4495 11.8555 9.4495 12.1445 9.6515 12.1845C11.3606 12.5243 13.2257 12.9114 14.4075 14.0931C15.5892 15.2749 15.9751 17.14 16.3161 18.8479C16.3561 19.0499 16.6451 19.0499 16.6851 18.8479C17.0249 17.1388 17.412 15.2749 18.5937 14.0931C19.7755 12.9114 21.6394 12.5256 23.3485 12.1857C23.5505 12.1458 23.5505 11.8567 23.3485 11.8168V11.8155Z" fill="var(--fill-0, #7A005D)"/>
</g>
</svg>
